<svg viewBox="0 0 120 120" width="120" height="120" xmlns="http://www.w3.org/2000/svg">
  <defs>
    <radialGradient id="rg4" cx="50%" cy="50%" r="50%"><stop offset="0%" stop-color="#FDE047" stop-opacity="0.8"/><stop offset="60%" stop-color="#CA8A04" stop-opacity="0.3"/><stop offset="100%" stop-color="#000" stop-opacity="0"/></radialGradient>
    <linearGradient id="gp4" x1="0%" y1="0%" x2="100%" y2="100%"><stop offset="0%" stop-color="#FEF08A"/><stop offset="35%" stop-color="#EAB308"/><stop offset="70%" stop-color="#CA8A04"/><stop offset="100%" stop-color="#854D0E"/></linearGradient>
    <linearGradient id="mr4" x1="0%" y1="100%" x2="100%" y2="0%"><stop offset="0%" stop-color="#451A03"/><stop offset="50%" stop-color="#D97706"/><stop offset="100%" stop-color="#FEF08A"/></linearGradient>
  </defs>
  <circle cx="60" cy="60" r="54" fill="url(#rg4)"/>
  <polygon points="60,10 95,25 108,60 95,95 60,110 25,95 12,60 25,25" fill="#18181B" stroke="url(#mr4)" stroke-width="3" filter="drop-shadow(0 4px 10px rgba(0,0,0,0.8))"/>
  <path d="M 30,75 C 24,55 35,32 60,25 C 85,32 96,55 90,75 C 80,95 60,100 60,100 C 60,100 40,95 30,75 Z" fill="none" stroke="url(#gp4)" stroke-width="4" stroke-linecap="round"/>
  <polygon points="60,35 66,50 82,52 70,63 74,79 60,70 46,79 50,63 38,52 54,50" fill="url(#gp4)" stroke="#78350F" stroke-width="1.5" filter="drop-shadow(0 2px 6px rgba(234,179,8,0.7))"/>
  <polygon points="60,48 68,58 60,68 52,58" fill="#FFFBEB" stroke="#CA8A04" stroke-width="1"/>
</svg>